<svg width="189" height="104" viewBox="0 0 189 104" fill="none" xmlns="http://www.w3.org/2000/svg">
<path fill-rule="evenodd" clip-rule="evenodd" d="M40.315 104H119.844C120.294 104 120.733 103.951 121.155 103.859C121.578 103.951 122.016 104 122.466 104H167.912C171.29 104 174.029 101.261 174.029 97.8823C174.029 94.5036 171.29 91.7647 167.912 91.7647H162.668C159.289 91.7647 156.55 89.0257 156.55 85.647C156.55 82.2683 159.289 79.5294 162.668 79.5294H179.273C182.652 79.5294 185.391 76.7904 185.391 73.4117C185.391 70.033 182.652 67.2941 179.273 67.2941H160.046C163.425 67.2941 166.164 64.5551 166.164 61.1764C166.164 57.7977 163.425 55.0588 160.046 55.0588H104.113C107.492 55.0588 110.231 52.3198 110.231 48.9411C110.231 45.5625 107.492 42.8235 104.113 42.8235H54.2982C50.9195 42.8235 48.1805 45.5625 48.1805 48.9411C48.1805 52.3198 50.9195 55.0588 54.2982 55.0588H19.3402C15.9615 55.0588 13.2225 57.7977 13.2225 61.1764C13.2225 64.5551 15.9615 67.2941 19.3402 67.2941H41.1889C44.5676 67.2941 47.3066 70.033 47.3066 73.4117C47.3066 76.7904 44.5676 79.5294 41.1889 79.5294H6.23093C2.85224 79.5294 0.113281 82.2683 0.113281 85.647C0.113281 89.0257 2.85224 91.7647 6.23093 91.7647H40.315C36.9363 91.7647 34.1973 94.5036 34.1973 97.8823C34.1973 101.261 36.9363 104 40.315 104ZM182.769 104C186.148 104 188.887 101.261 188.887 97.8824C188.887 94.5037 186.148 91.7647 182.769 91.7647C179.39 91.7647 176.651 94.5037 176.651 97.8824C176.651 101.261 179.39 104 182.769 104Z" fill="#01BC62" fill-opacity="0.06"/>
<g clip-path="url(#clip0_524_3865)">
<path d="M140.361 69.9859V46.8918C140.361 39.9253 134.687 34.2588 127.712 34.2588H122.925V30.9859C122.925 30.7519 122.864 30.5378 122.771 30.339C123.315 29.1261 123.615 27.8139 123.615 26.4588C123.615 22.6812 121.379 19.2997 118.025 17.7779C118.132 17.2044 118.186 16.6201 118.186 16.0283C118.186 10.7747 113.911 6.50002 108.657 6.50002C108.183 6.50002 107.717 6.5352 107.263 6.60402C105.541 3.86791 102.5 2.15649 99.2057 2.15649C96.5889 2.15649 94.0944 3.24085 92.3126 5.10673C90.8597 4.49496 89.289 4.17532 87.7045 4.17532C82.0594 4.17532 77.2112 8.21449 76.0718 13.6118C70.312 13.6913 65.6504 18.3943 65.6504 24.1632C65.6504 26.5567 66.4702 28.8432 67.9277 30.6846C67.9078 30.7856 67.8665 30.8788 67.8665 30.9844V84.6683C67.8665 90.269 72.834 94.8236 78.9394 94.8236H111.868C117.965 94.8236 122.925 90.2674 122.925 84.6683V82.6341H127.712C134.687 82.6341 140.361 76.96 140.361 69.9859ZM122.925 45.0871H127.712C128.716 45.0871 129.532 45.8961 129.532 46.8918V69.9859C129.532 70.9892 128.716 71.8059 127.712 71.8059H122.925V45.0871ZM76.2171 16.6706C76.552 16.6706 76.8747 16.6981 77.1959 16.7364C77.6089 16.7868 78.0249 16.6676 78.3476 16.403C78.6687 16.1399 78.8706 15.756 78.9043 15.3416C79.2698 10.7961 83.1346 7.23567 87.703 7.23567C89.1972 7.23567 90.6746 7.61802 91.9746 8.34296C92.6522 8.7192 93.5056 8.53108 93.9598 7.89944C95.1696 6.22014 97.1287 5.21685 99.2042 5.21685C101.728 5.21685 104.034 6.69579 105.077 8.98532C105.397 9.68732 106.187 10.0406 106.925 9.8112C107.461 9.64449 108.044 9.55885 108.656 9.55885C112.224 9.55885 115.125 12.4601 115.125 16.0283C115.125 16.7792 114.997 17.5148 114.743 18.2138C114.596 18.616 114.625 19.0611 114.824 19.4404C115.021 19.8212 115.369 20.0996 115.781 20.2112C118.591 20.9713 120.555 23.5392 120.555 26.4573C120.555 27.5126 120.302 28.5358 119.819 29.455H98.7912C95.6544 29.455 93.1018 32.0076 93.1018 35.1444V42.9597C93.1018 44.4111 91.9226 45.5903 90.4712 45.5903H89.9206C88.4707 45.5903 87.29 44.4111 87.29 42.9597V29.8067C87.29 26.6699 84.739 24.1173 81.4783 24.1173C81.0929 24.1173 80.7166 24.1571 80.3526 24.2305C80.2333 24.255 80.1232 24.3024 80.0054 24.3345C79.7669 24.3987 79.5283 24.4599 79.3034 24.5532C79.1704 24.6083 79.0511 24.6863 78.9242 24.7505C78.7299 24.8499 78.5326 24.9417 78.3522 25.0625C78.2252 25.1466 78.1151 25.2491 77.9943 25.3424C77.8322 25.4693 77.6654 25.5917 77.5186 25.7354C77.407 25.844 77.3122 25.9679 77.2097 26.0857C77.0766 26.2371 76.942 26.3854 76.8258 26.5506C76.734 26.6806 76.6606 26.8228 76.5811 26.962C76.4802 27.1348 76.3777 27.3046 76.2951 27.4881C76.2278 27.6365 76.1804 27.7925 76.1269 27.9485C76.0611 28.1381 75.9938 28.3263 75.9479 28.5251C75.9097 28.6887 75.8913 28.8554 75.8684 29.0237C75.8485 29.169 75.8087 29.3081 75.7996 29.4565H70.91C69.5045 28.0632 68.7092 26.1637 68.7092 24.1647C68.7092 20.0323 72.077 16.6706 76.2171 16.6706ZM78.8936 29.3647C78.9058 29.2898 78.9257 29.2179 78.944 29.146C78.967 29.0573 78.9945 28.9686 79.0266 28.883C79.0526 28.8141 79.0832 28.7468 79.1153 28.6796C79.1551 28.5985 79.1994 28.519 79.2469 28.4425C79.2851 28.3798 79.3264 28.3201 79.3692 28.2605C79.4243 28.1871 79.4839 28.1198 79.5451 28.0525C79.594 27.999 79.6445 27.9454 79.698 27.8965C79.7669 27.8338 79.8418 27.7772 79.9183 27.7221C79.9764 27.6793 80.033 27.635 80.0942 27.5983C80.1783 27.5463 80.27 27.5034 80.3603 27.4606C80.423 27.4316 80.4826 27.3979 80.5484 27.3719C80.6539 27.3306 80.7671 27.3031 80.8787 27.2756C80.9369 27.2603 80.9919 27.2404 81.0531 27.2297C81.229 27.1976 81.4125 27.1777 81.6006 27.1777C81.775 27.1777 81.9447 27.196 82.1099 27.2297C82.165 27.2404 82.217 27.2618 82.272 27.2756C82.3791 27.3031 82.4846 27.3321 82.5856 27.3734C82.6467 27.3979 82.7033 27.4316 82.763 27.4606C82.8502 27.5034 82.9373 27.5478 83.0184 27.5998C83.0765 27.638 83.13 27.6808 83.1851 27.7221C83.2585 27.7787 83.3319 27.8353 83.3992 27.8996C83.4512 27.9485 83.4971 28.0005 83.5445 28.0525C83.6057 28.1198 83.6653 28.1901 83.7189 28.2636C83.7602 28.3201 83.7984 28.3798 83.8366 28.441C83.884 28.519 83.9284 28.6 83.9682 28.6841C83.9987 28.7484 84.0278 28.8126 84.0523 28.8799C84.0859 28.9686 84.1134 29.0604 84.1364 29.1521C84.1547 29.221 84.1716 29.2883 84.1838 29.3601C84.1899 29.3923 84.1899 29.4244 84.193 29.4565H78.8813C78.8859 29.4259 78.8859 29.3953 78.8905 29.3647H78.8936ZM119.867 84.6683C119.867 88.582 116.279 91.7647 111.868 91.7647H78.9394C74.5194 91.7647 70.9253 88.5805 70.9253 84.6683V32.5153H84.2312V42.9612C84.2312 46.098 86.7823 48.6506 89.9206 48.6506H90.4712C93.608 48.6506 96.1606 46.098 96.1606 42.9612V35.1459C96.1606 33.6945 97.3398 32.5153 98.7912 32.5153H119.867V84.6683ZM127.712 79.5753H122.925V74.8647H127.712C130.403 74.8647 132.591 72.6761 132.591 69.9859V46.8918C132.591 44.2107 130.403 42.0283 127.712 42.0283H122.925V37.3177H127.712C133.001 37.3177 137.302 41.6123 137.302 46.8918V69.9859C137.302 75.2746 133.001 79.5753 127.712 79.5753Z" fill="#01BC62"/>
<path d="M75.1446 40.4055C74.3004 40.4055 73.6152 41.0907 73.6152 41.9349V43.316C73.6152 44.1602 74.3004 44.8454 75.1446 44.8454C75.9889 44.8454 76.6741 44.1602 76.6741 43.316V41.9349C76.6741 41.0907 75.9889 40.4055 75.1446 40.4055Z" fill="#01BC62" fill-opacity="0.46"/>
<path d="M75.1446 47.4119C74.3004 47.4119 73.6152 48.097 73.6152 48.9413V77.0626C73.6152 77.9068 74.3004 78.592 75.1446 78.592C75.9889 78.592 76.6741 77.9068 76.6741 77.0626V48.9413C76.6741 48.097 75.9889 47.4119 75.1446 47.4119Z" fill="#01BC62" fill-opacity="0.46"/>
</g>
<defs>
<clipPath id="clip0_524_3865">
<rect width="97.8823" height="97.8824" fill="white" transform="translate(55.1724)"/>
</clipPath>
</defs>
</svg>
